<?xml version="1.0" standalone="no"?>
<!DOCTYPE svg PUBLIC "-//W3C//DTD SVG 20010904//EN"
 "http://www.w3.org/TR/2001/REC-SVG-20010904/DTD/svg10.dtd">
<svg version="1.0" xmlns="http://www.w3.org/2000/svg"
 width="184.765848pt" height="185.522016pt" viewBox="0 0 184.765848 185.522016"
 preserveAspectRatio="xMidYMid meet">
<metadata>
Created by potrace 1.12, written by Peter Selinger 2001-2015
</metadata>
<g transform="translate(-196.116536,309.595946) scale(0.100000,-0.100000)"
fill="#000000" stroke="none">
<path d="M2245 3086 c-89 -26 -106 -35 -169 -99 -123 -122 -148 -284 -70 -444
84 -170 328 -249 491 -158 l43 24 5 -22 c21 -93 25 -124 25 -211 0 -98 -14
-210 -29 -235 -7 -11 -13 -10 -32 3 -40 26 -149 49 -204 43 -204 -21 -361
-207 -342 -405 9 -99 42 -169 112 -238 78 -76 149 -104 264 -103 126 1 226 51
295 146 42 58 76 157 76 221 0 56 -22 144 -45 178 -9 13 -13 28 -10 33 9 15
132 32 230 32 93 0 221 -17 229 -30 3 -4 -6 -30 -20 -57 -73 -149 -17 -358
122 -457 65 -46 128 -65 215 -66 115 -1 186 27 264 103 70 69 103 139 112 238
19 196 -135 381 -337 405 -56 7 -154 -12 -199 -38 -26 -16 -36 -17 -42 -8 -15
25 -29 137 -29 235 0 87 4 118 25 211 l5 22 43 -24 c165 -92 407 -14 491 158
53 109 58 209 15 322 -33 90 -131 183 -219 210 -88 27 -186 25 -265 -5 -82
-31 -174 -124 -205 -206 -41 -110 -34 -242 17 -321 9 -13 14 -26 11 -28 -8 -9
-183 -35 -233 -35 -48 0 -224 26 -233 34 -2 2 6 21 17 42 47 87 51 200 11 308
-31 82 -123 175 -204 205 -77 28 -167 35 -231 17z m211 -114 c96 -49 154 -142
154 -246 0 -36 -5 -77 -11 -93 l-11 -28 -12 30 c-28 64 -96 136 -154 162 -84
37 -150 47 -180 27 -23 -15 -24 -20 -18 -72 11 -91 56 -173 125 -224 32 -24
67 -48 77 -54 17 -10 15 -13 -21 -23 -90 -25 -176 -4 -251 62 -153 134 -116
375 71 464 42 20 61 23 120 20 45 -2 85 -11 111 -25z m1089 4 c187 -86 224
-329 71 -463 -75 -66 -156 -86 -252 -62 l-45 12 40 23 c112 63 173 151 187
266 6 52 5 57 -18 72 -30 20 -96 10 -180 -27 -58 -26 -126 -98 -154 -162 l-12
-30 -11 28 c-6 16 -11 57 -11 93 0 197 209 333 385 250z m-1165 -267 c19 -12
46 -31 58 -43 27 -23 65 -92 60 -107 -2 -5 -22 1 -46 12 -44 22 -99 82 -120
132 -15 34 -2 36 48 6z m1057 -11 c-16 -43 -95 -122 -136 -136 -33 -12 -33
-12 -26 16 10 40 52 90 103 123 61 39 74 38 59 -3z m-552 -307 c66 0 149 6
183 13 l64 14 -6 -27 c-3 -14 -11 -72 -18 -128 -12 -99 -5 -204 19 -317 5 -27
4 -29 -18 -23 -108 30 -331 33 -422 7 -22 -6 -41 -9 -43 -7 -3 2 2 44 11 92
21 124 19 215 -10 366 l-7 37 64 -14 c34 -7 117 -13 183 -13z m-468 -512 l28
-11 -39 -20 c-22 -11 -63 -43 -91 -72 -40 -40 -56 -66 -73 -119 -24 -75 -27
-109 -12 -138 20 -37 149 -18 228 34 35 23 107 112 121 149 9 23 9 23 20 -5
19 -50 13 -147 -13 -202 -47 -102 -170 -174 -276 -162 -145 17 -250 132 -250
273 0 75 13 115 57 176 63 87 206 133 300 97z m1140 -19 c98 -49 152 -138 153
-250 0 -240 -276 -365 -457 -206 -61 54 -93 123 -93 203 0 34 5 74 11 90 11
28 11 28 20 5 14 -37 86 -126 121 -149 79 -52 208 -71 228 -34 15 29 12 63
-12 138 -17 53 -33 79 -73 119 -28 29 -69 61 -91 72 l-39 20 25 11 c14 5 52
10 86 10 49 1 73 -5 121 -29z m-1057 -90 c0 -47 -95 -145 -158 -164 -20 -7
-21 -6 -12 20 23 58 61 101 124 136 36 20 46 22 46 8z m818 -10 c61 -32 99
-74 122 -134 9 -26 8 -27 -12 -20 -63 19 -158 117 -158 164 0 14 5 13 48 -10z"/>
</g>
</svg>
